<svg id="Layer_1" data-name="Layer 1" xmlns="http://www.w3.org/2000/svg" viewBox="0 0 143.16 143.16"><title>2</title><path d="M299.24,67l9.95,28a4,4,0,0,0,5.5,2.27l26.83-12.75a4,4,0,0,1,5.34,5.34l-12.75,26.83a4,4,0,0,0,2.28,5.5l28,10a4,4,0,0,1,0,7.56l-28,10a4,4,0,0,0-2.28,5.5l12.75,26.83a4,4,0,0,1-5.34,5.34l-26.83-12.75a4,4,0,0,0-5.5,2.28l-9.95,28a4,4,0,0,1-7.55,0l-10-28a4,4,0,0,0-5.49-2.28l-26.83,12.75a4,4,0,0,1-5.34-5.34l12.75-26.83a4,4,0,0,0-2.28-5.5l-28-10a4,4,0,0,1,0-7.56l28-10a4,4,0,0,0,2.28-5.5L244.07,89.8a4,4,0,0,1,5.34-5.34l26.83,12.75a4,4,0,0,0,5.49-2.27l10-28A4,4,0,0,1,299.24,67Z" transform="translate(-223.89 -64.28)"/></svg>