<?xml version="1.0" encoding="utf-8"?>
<!-- Generator: Adobe Illustrator 22.1.0, SVG Export Plug-In . SVG Version: 6.00 Build 0)  -->
<svg version="1.1" id="Layer_1" xmlns="http://www.w3.org/2000/svg" xmlns:xlink="http://www.w3.org/1999/xlink" x="0px" y="0px"
	 viewBox="0 0 143.2 143.2" style="enable-background:new 0 0 143.2 143.2;" xml:space="preserve">

<title>2</title>
<path class="st0" d="M75.3,2.7l10,28c0.7,2.1,3,3.2,5.1,2.4c0.1,0,0.3-0.1,0.4-0.2l26.8-12.8c2-1,4.4-0.1,5.3,1.9
	c0.5,1.1,0.5,2.4,0,3.5l-12.8,26.8c-1,2-0.1,4.4,1.9,5.3c0.1,0.1,0.3,0.1,0.4,0.2l28,10c2.1,0.7,3.2,3,2.5,5.1
	c-0.4,1.2-1.3,2.1-2.5,2.5l-28,10c-2.1,0.7-3.2,3-2.4,5.1c0,0.1,0.1,0.3,0.2,0.4l12.8,26.8c1,2,0.1,4.4-1.9,5.3
	c-1.1,0.5-2.4,0.5-3.5,0l-26.8-12.8c-2-1-4.4-0.1-5.3,1.9c-0.1,0.1-0.1,0.3-0.2,0.4l-10,28c-0.7,2.1-3,3.2-5.1,2.5
	c-1.1-0.4-2.1-1.3-2.5-2.5l-10-28c-0.7-2.1-3-3.2-5.1-2.4c-0.1,0-0.3,0.1-0.4,0.2l-26.8,12.8c-2,1-4.4,0.1-5.3-1.9
	c-0.5-1.1-0.5-2.4,0-3.5L32.9,91c1-2,0.1-4.4-1.9-5.3c-0.1-0.1-0.3-0.1-0.4-0.2l-28-10c-2.1-0.7-3.2-3-2.5-5.1
	c0.4-1.2,1.3-2.1,2.5-2.5l28-10c2.1-0.7,3.2-3,2.4-5.1c0-0.1-0.1-0.3-0.2-0.4L20.2,25.5c-1-2-0.1-4.4,1.9-5.3c1.1-0.5,2.4-0.5,3.5,0
	l26.8,12.8c2,1,4.4,0.1,5.3-1.9c0.1-0.1,0.1-0.3,0.2-0.4l10-28c0.8-2.1,3.1-3.1,5.2-2.3C74.1,0.7,75,1.6,75.3,2.7z"/>
</svg>
