<svg id="Layer_1" data-name="Layer 1" xmlns="http://www.w3.org/2000/svg" viewBox="0 0 132.62 132.62"><title>3</title><path d="M485.74,79l6.47,18.18a6.65,6.65,0,0,0,9.14,3.79l17.43-8.28a6.66,6.66,0,0,1,8.88,8.88L519.37,119a6.67,6.67,0,0,0,3.79,9.14l18.18,6.46a6.67,6.67,0,0,1,0,12.56l-18.18,6.47a6.67,6.67,0,0,0-3.79,9.14l8.29,17.42a6.66,6.66,0,0,1-8.88,8.88l-17.43-8.28a6.67,6.67,0,0,0-9.14,3.79l-6.47,18.18a6.67,6.67,0,0,1-12.56,0l-6.46-18.18a6.67,6.67,0,0,0-9.14-3.79l-17.43,8.28a6.66,6.66,0,0,1-8.88-8.88l8.28-17.42a6.66,6.66,0,0,0-3.78-9.14l-18.18-6.47a6.67,6.67,0,0,1,0-12.56l18.18-6.46a6.66,6.66,0,0,0,3.78-9.14l-8.28-17.43a6.66,6.66,0,0,1,8.88-8.88L457.58,101a6.65,6.65,0,0,0,9.14-3.79L473.18,79A6.67,6.67,0,0,1,485.74,79Z" transform="translate(-413.16 -74.55)"/></svg>