<?xml version="1.0" encoding="utf-8"?>
<!-- Generator: Adobe Illustrator 22.1.0, SVG Export Plug-In . SVG Version: 6.00 Build 0)  -->
<svg version="1.1" id="Layer_1" xmlns="http://www.w3.org/2000/svg" xmlns:xlink="http://www.w3.org/1999/xlink" x="0px" y="0px"
	 viewBox="0 0 132.6 132.6" style="enable-background:new 0 0 132.6 132.6;" xml:space="preserve">

<title>3</title>
<path class="st0" d="M72.6,4.4L79,22.6c1.2,3.5,5,5.3,8.5,4.1c0.2-0.1,0.4-0.2,0.7-0.3l17.4-8.3c3.3-1.6,7.3-0.2,8.9,3.1
	c0.9,1.8,0.9,3.9,0,5.7l-8.3,17.4c-1.6,3.3-0.2,7.3,3.2,8.9c0.2,0.1,0.4,0.2,0.6,0.3l18.2,6.5c3.5,1.2,5.3,5.1,4,8.5
	c-0.7,1.9-2.2,3.4-4,4L110,79.1c-3.5,1.2-5.3,5.1-4,8.5c0.1,0.2,0.2,0.4,0.3,0.6l8.3,17.4c1.6,3.3,0.2,7.3-3.1,8.9
	c-1.8,0.9-3.9,0.9-5.7,0l-17.4-8.3c-3.3-1.6-7.3-0.2-8.9,3.2c-0.1,0.2-0.2,0.4-0.3,0.6l-6.5,18.2c-1.2,3.5-5.1,5.3-8.5,4
	c-1.9-0.7-3.4-2.2-4-4L53.6,110c-1.2-3.5-5.1-5.3-8.5-4c-0.2,0.1-0.4,0.2-0.6,0.3L27,114.5c-3.3,1.6-7.3,0.2-8.9-3.1
	c-0.9-1.8-0.9-3.9,0-5.7l8.3-17.4c1.6-3.3,0.2-7.3-3.1-8.9c-0.2-0.1-0.4-0.2-0.6-0.3L4.4,72.6c-3.5-1.2-5.3-5.1-4-8.5
	c0.7-1.9,2.2-3.4,4-4l18.2-6.5c3.5-1.2,5.3-5,4-8.5c-0.1-0.2-0.2-0.4-0.3-0.6L18.1,27c-1.6-3.3-0.2-7.3,3.1-8.9
	c1.8-0.9,3.9-0.9,5.7,0l17.4,8.3c3.3,1.6,7.3,0.2,8.9-3.1c0.1-0.2,0.2-0.4,0.3-0.7L60,4.4c1.2-3.5,5.1-5.3,8.5-4
	C70.4,1.1,71.9,2.6,72.6,4.4z"/>
</svg>
