<svg id="Layer_1" data-name="Layer 1" xmlns="http://www.w3.org/2000/svg" viewBox="0 0 125.2 125.2"><title>4</title><path d="M127.9,256.5l4,11.28a8.53,8.53,0,0,0,11.71,4.84l10.81-5.13a8.53,8.53,0,0,1,11.37,11.37l-5.14,10.81a8.53,8.53,0,0,0,4.85,11.7l11.27,4a8.53,8.53,0,0,1,0,16.08l-11.27,4a8.54,8.54,0,0,0-4.85,11.71L165.8,348a8.53,8.53,0,0,1-11.37,11.37l-10.81-5.14a8.55,8.55,0,0,0-11.71,4.85l-4,11.28a8.54,8.54,0,0,1-16.08,0l-4-11.28a8.54,8.54,0,0,0-11.71-4.85l-10.8,5.14A8.54,8.54,0,0,1,73.92,348l5.14-10.81a8.54,8.54,0,0,0-4.85-11.71l-11.27-4a8.53,8.53,0,0,1,0-16.08l11.27-4a8.53,8.53,0,0,0,4.85-11.7l-5.14-10.81A8.54,8.54,0,0,1,85.3,267.49l10.8,5.13a8.53,8.53,0,0,0,11.71-4.84l4-11.28A8.53,8.53,0,0,1,127.9,256.5Z" transform="translate(-57.26 -250.83)"/></svg>