<?xml version="1.0" encoding="utf-8"?>
<!-- Generator: Adobe Illustrator 22.1.0, SVG Export Plug-In . SVG Version: 6.00 Build 0)  -->
<svg version="1.1" id="Layer_1" xmlns="http://www.w3.org/2000/svg" xmlns:xlink="http://www.w3.org/1999/xlink" x="0px" y="0px"
	 viewBox="0 0 125.2 125.2" style="enable-background:new 0 0 125.2 125.2;" xml:space="preserve">

<title>4</title>
<path class="st0" d="M70.6,5.7l4,11.3c1.6,4.4,6.5,6.8,10.9,5.2c0.3-0.1,0.5-0.2,0.8-0.3l10.8-5.1c4.3-2,9.3-0.2,11.4,4
	c1.1,2.3,1.1,5,0,7.3l-5.1,10.8c-2,4.3-0.2,9.3,4,11.4c0.3,0.1,0.5,0.2,0.8,0.3l11.3,4c4.4,1.6,6.8,6.4,5.2,10.9
	c-0.9,2.4-2.8,4.3-5.2,5.2l-11.3,4c-4.4,1.6-6.8,6.5-5.2,10.9c0.1,0.3,0.2,0.5,0.3,0.8l5.2,10.8c2,4.3,0.2,9.3-4,11.4
	c-2.3,1.1-5,1.1-7.3,0l-10.8-5.1c-4.3-2-9.4-0.2-11.4,4.1c-0.1,0.3-0.2,0.5-0.3,0.8l-4,11.3c-1.6,4.4-6.5,6.8-10.9,5.2
	c-2.4-0.9-4.3-2.8-5.2-5.2l-4-11.3c-1.6-4.4-6.5-6.8-10.9-5.2c-0.3,0.1-0.5,0.2-0.8,0.3l-10.8,5.1c-4.3,2-9.4,0.2-11.4-4
	c-1.1-2.3-1.1-5,0-7.4l5.1-10.8c2-4.3,0.2-9.4-4-11.4c-0.3-0.1-0.5-0.2-0.8-0.3l-11.3-4c-4.4-1.6-6.8-6.4-5.2-10.9
	c0.9-2.4,2.8-4.3,5.2-5.2l11.3-4c4.4-1.6,6.8-6.5,5.2-10.9c-0.1-0.3-0.2-0.5-0.3-0.8l-5.1-10.8c-2-4.3-0.2-9.4,4-11.4
	c2.3-1.1,5-1.1,7.4,0l10.8,5.1c4.3,2,9.3,0.2,11.4-4c0.1-0.3,0.2-0.5,0.3-0.8l4-11.3c1.6-4.4,6.4-6.8,10.9-5.2
	C67.9,1.3,69.8,3.2,70.6,5.7z"/>
</svg>
