<svg id="Layer_1" data-name="Layer 1" xmlns="http://www.w3.org/2000/svg" viewBox="0 0 113.08 113.08"><title>5</title><path d="M306.38,271.1h0a11.6,11.6,0,0,0,15.9,6.59h0a11.59,11.59,0,0,1,15.44,15.44h0A11.58,11.58,0,0,0,344.3,309h0a11.58,11.58,0,0,1,0,21.83h0a11.6,11.6,0,0,0-6.58,15.9h0a11.59,11.59,0,0,1-15.44,15.44h0a11.59,11.59,0,0,0-15.9,6.58h0a11.58,11.58,0,0,1-21.83,0h0a11.59,11.59,0,0,0-15.9-6.58h0a11.59,11.59,0,0,1-15.44-15.44h0a11.6,11.6,0,0,0-6.58-15.9h0a11.58,11.58,0,0,1,0-21.83h0a11.58,11.58,0,0,0,6.58-15.89h0a11.59,11.59,0,0,1,15.44-15.44h0a11.6,11.6,0,0,0,15.9-6.59h0A11.58,11.58,0,0,1,306.38,271.1Z" transform="translate(-238.93 -263.4)"/></svg>