<?xml version="1.0" encoding="utf-8"?>
<!-- Generator: Adobe Illustrator 22.1.0, SVG Export Plug-In . SVG Version: 6.00 Build 0)  -->
<svg version="1.1" id="Layer_1" xmlns="http://www.w3.org/2000/svg" xmlns:xlink="http://www.w3.org/1999/xlink" x="0px" y="0px"
	 viewBox="0 0 113.1 113.1" style="enable-background:new 0 0 113.1 113.1;" xml:space="preserve">

<title>5</title>
<path class="st0" d="M67.5,7.7L67.5,7.7c2.1,6,8.8,9.2,14.8,7c0.4-0.1,0.7-0.3,1.1-0.4l0,0c5.8-2.7,12.7-0.3,15.4,5.5
	c1.5,3.1,1.5,6.8,0,9.9l0,0c-2.7,5.8-0.3,12.7,5.5,15.4c0.4,0.2,0.7,0.3,1.1,0.4l0,0c6,2.1,9.2,8.8,7,14.8c-1.2,3.3-3.8,5.9-7,7l0,0
	c-6,2.2-9.2,8.8-7,14.8c0.1,0.4,0.3,0.7,0.4,1.1l0,0c2.7,5.8,0.3,12.7-5.5,15.4c-3.1,1.5-6.8,1.5-9.9,0l0,0
	c-5.8-2.8-12.7-0.3-15.4,5.5c-0.2,0.4-0.3,0.7-0.5,1.1l0,0c-2.1,6-8.8,9.2-14.8,7c-3.3-1.2-5.9-3.8-7-7l0,0c-2.1-6-8.8-9.2-14.8-7
	c-0.4,0.1-0.7,0.3-1.1,0.5l0,0c-5.8,2.7-12.7,0.3-15.4-5.5c-1.5-3.1-1.5-6.8,0-9.9l0,0c2.7-5.8,0.3-12.7-5.5-15.5
	c-0.4-0.2-0.7-0.3-1.1-0.4l0,0c-6-2.1-9.2-8.8-7-14.8c1.2-3.3,3.8-5.9,7-7l0,0c6-2.1,9.2-8.8,7-14.8c-0.1-0.4-0.3-0.7-0.5-1.1l0,0
	C11.5,23.9,14,17,19.8,14.3c3.1-1.5,6.8-1.5,9.9,0l0,0c5.8,2.7,12.7,0.3,15.5-5.5c0.2-0.4,0.3-0.7,0.4-1.1l0,0c2.1-6,8.8-9.2,14.8-7
	C63.7,1.8,66.3,4.4,67.5,7.7z"/>
</svg>
