<svg id="Layer_1" data-name="Layer 1" xmlns="http://www.w3.org/2000/svg" viewBox="0 0 316.7 294.5"><defs><style>.cls-1{fill:#fff;}.cls-2{fill:#e0b603;}</style></defs><title>3</title><ellipse class="cls-1" cx="88.85" cy="263.24" rx="30" ry="16.74"/><path d="M328.5,390.5c7.85,0,15.17,1.75,20.61,4.94,2.76,1.62,7.39,5,7.39,9.8s-4.63,8.19-7.39,9.8c-5.44,3.19-12.76,4.95-20.61,4.95s-15.17-1.76-20.61-4.95c-2.76-1.61-7.39-5-7.39-9.8s4.63-8.18,7.39-9.8c5.44-3.19,12.76-4.94,20.61-4.94m0-4c-17.67,0-32,8.39-32,18.74S310.83,424,328.5,424s32-8.4,32-18.75-14.33-18.74-32-18.74Z" transform="translate(-239.65 -142)"/><ellipse cx="82.35" cy="259" rx="15.5" ry="13.5"/><ellipse class="cls-1" cx="219.85" cy="263.24" rx="30" ry="16.74"/><path d="M459.5,390.5c7.85,0,15.17,1.75,20.61,4.94,2.76,1.62,7.39,5,7.39,9.8s-4.63,8.19-7.39,9.8c-5.44,3.19-12.76,4.95-20.61,4.95s-15.17-1.76-20.61-4.95c-2.76-1.61-7.39-5-7.39-9.8s4.63-8.18,7.39-9.8c5.44-3.19,12.76-4.94,20.61-4.94m0-4c-17.67,0-32,8.39-32,18.74S441.83,424,459.5,424s32-8.4,32-18.75-14.33-18.74-32-18.74Z" transform="translate(-239.65 -142)"/><ellipse cx="213.35" cy="259" rx="15.5" ry="13.5"/><ellipse cx="349.5" cy="358.5" rx="17" ry="10" transform="translate(-270.41 -109.19) rotate(-5.15)"/><ellipse cx="438.5" cy="358.5" rx="10" ry="17" transform="translate(-186.94 631.19) rotate(-86.34)"/><path d="M306.1,339.5H494.5a10,10,0,0,1,10,10v87h41.84a10,10,0,0,0,10-10.31c-7.79-259.15-308.91-259.15-316.7,0a10,10,0,0,0,10,10.31H292.5l3.6-87.41A10,10,0,0,1,306.1,339.5Z" transform="translate(-239.65 -142)"/><circle class="cls-2" cx="70.85" cy="37.5" r="37.5"/></svg>